<svg width="20" height="20" viewBox="0 0 20 20" fill="none" xmlns="http://www.w3.org/2000/svg">
<g clip-path="url(#clip0_208_289)">
<path d="M3.33325 11.6667V9.16667C3.33325 7.39856 4.03563 5.70286 5.28587 4.45262C6.53612 3.20238 8.23181 2.5 9.99992 2.5C11.768 2.5 13.4637 3.20238 14.714 4.45262C15.9642 5.70286 16.6666 7.39856 16.6666 9.16667V11.6667" stroke="#367BFF" stroke-width="2" stroke-linecap="round" stroke-linejoin="round"/>
<path d="M15 15.8334C15 17.2142 12.7617 18.3334 10 18.3334" stroke="#367BFF" stroke-width="2" stroke-linecap="round" stroke-linejoin="round"/>
<path d="M3.33325 11.6667C3.33325 11.2246 3.50885 10.8007 3.82141 10.4882C4.13397 10.1756 4.55789 10 4.99992 10H5.83325C6.27528 10 6.6992 10.1756 7.01176 10.4882C7.32432 10.8007 7.49992 11.2246 7.49992 11.6667V14.1667C7.49992 14.6087 7.32432 15.0326 7.01176 15.3452C6.6992 15.6577 6.27528 15.8333 5.83325 15.8333H4.99992C4.55789 15.8333 4.13397 15.6577 3.82141 15.3452C3.50885 15.0326 3.33325 14.6087 3.33325 14.1667V11.6667Z" stroke="#367BFF" stroke-width="2" stroke-linecap="round" stroke-linejoin="round"/>
<path d="M12.5 11.6667C12.5 11.2246 12.6756 10.8007 12.9882 10.4882C13.3007 10.1756 13.7246 10 14.1667 10H15C15.442 10 15.866 10.1756 16.1785 10.4882C16.4911 10.8007 16.6667 11.2246 16.6667 11.6667V14.1667C16.6667 14.6087 16.4911 15.0326 16.1785 15.3452C15.866 15.6577 15.442 15.8333 15 15.8333H14.1667C13.7246 15.8333 13.3007 15.6577 12.9882 15.3452C12.6756 15.0326 12.5 14.6087 12.5 14.1667V11.6667Z" stroke="#367BFF" stroke-width="2" stroke-linecap="round" stroke-linejoin="round"/>
</g>
<defs>
<clipPath id="clip0_208_289">
<rect width="20" height="20" fill="white"/>
</clipPath>
</defs>
</svg>
