<svg width="20" height="20" viewBox="0 0 20 20" fill="none" xmlns="http://www.w3.org/2000/svg">
<g clip-path="url(#clip0_208_279)">
<path d="M7.5 12.5L12.5 7.5" stroke="#367BFF" stroke-width="2" stroke-linecap="round" stroke-linejoin="round"/>
<path d="M7.91667 8.33333C8.14679 8.33333 8.33333 8.14679 8.33333 7.91667C8.33333 7.68655 8.14679 7.5 7.91667 7.5C7.68655 7.5 7.5 7.68655 7.5 7.91667C7.5 8.14679 7.68655 8.33333 7.91667 8.33333Z" fill="#367BFF" stroke="#367BFF" stroke-width="2" stroke-linecap="round" stroke-linejoin="round"/>
<path d="M12.0834 12.5C12.3135 12.5 12.5001 12.3134 12.5001 12.0833C12.5001 11.8532 12.3135 11.6666 12.0834 11.6666C11.8533 11.6666 11.6667 11.8532 11.6667 12.0833C11.6667 12.3134 11.8533 12.5 12.0834 12.5Z" fill="#367BFF" stroke="#367BFF" stroke-width="2" stroke-linecap="round" stroke-linejoin="round"/>
<path d="M4.16656 6.00002C4.16656 5.51379 4.35972 5.04747 4.70353 4.70366C5.04735 4.35984 5.51367 4.16668 5.9999 4.16668H6.83323C7.31731 4.16641 7.78164 3.97469 8.1249 3.63335L8.70823 3.05002C8.8786 2.87868 9.08116 2.74272 9.30426 2.64994C9.52736 2.55716 9.76661 2.5094 10.0082 2.5094C10.2499 2.5094 10.4891 2.55716 10.7122 2.64994C10.9353 2.74272 11.1379 2.87868 11.3082 3.05002L11.8916 3.63335C12.2348 3.97469 12.6991 4.16641 13.1832 4.16668H14.0166C14.5028 4.16668 14.9691 4.35984 15.3129 4.70366C15.6567 5.04747 15.8499 5.51379 15.8499 6.00002V6.83335C15.8502 7.31743 16.0419 7.78176 16.3832 8.12502L16.9666 8.70835C17.1379 8.87872 17.2739 9.08128 17.3666 9.30439C17.4594 9.52749 17.5072 9.76673 17.5072 10.0084C17.5072 10.25 17.4594 10.4892 17.3666 10.7123C17.2739 10.9354 17.1379 11.138 16.9666 11.3084L16.3832 11.8917C16.0419 12.2349 15.8502 12.6993 15.8499 13.1834V14.0167C15.8499 14.5029 15.6567 14.9692 15.3129 15.313C14.9691 15.6569 14.5028 15.85 14.0166 15.85H13.1832C12.6991 15.8503 12.2348 16.042 11.8916 16.3834L11.3082 16.9667C11.1379 17.138 10.9353 17.274 10.7122 17.3668C10.4891 17.4595 10.2499 17.5073 10.0082 17.5073C9.76661 17.5073 9.52736 17.4595 9.30426 17.3668C9.08116 17.274 8.8786 17.138 8.70823 16.9667L8.1249 16.3834C7.78164 16.042 7.31731 15.8503 6.83323 15.85H5.9999C5.51367 15.85 5.04735 15.6569 4.70353 15.313C4.35972 14.9692 4.16656 14.5029 4.16656 14.0167V13.1834C4.16629 12.6993 3.97456 12.2349 3.63323 11.8917L3.0499 11.3084C2.87856 11.138 2.7426 10.9354 2.64982 10.7123C2.55704 10.4892 2.50928 10.25 2.50928 10.0084C2.50928 9.76673 2.55704 9.52749 2.64982 9.30439C2.7426 9.08128 2.87856 8.87872 3.0499 8.70835L3.63323 8.12502C3.97456 7.78176 4.16629 7.31743 4.16656 6.83335V6.00002Z" stroke="#367BFF" stroke-width="2" stroke-linecap="round" stroke-linejoin="round"/>
</g>
<defs>
<clipPath id="clip0_208_279">
<rect width="20" height="20" fill="white"/>
</clipPath>
</defs>
</svg>
