<svg width="15" height="15" viewBox="0 0 15 15" fill="none" xmlns="http://www.w3.org/2000/svg">
<g clip-path="url(#clip0_214_406)">
<path d="M2.5 12.4999H5L11.5625 5.93744C11.7267 5.77329 11.8569 5.57842 11.9457 5.36394C12.0345 5.14946 12.0803 4.91959 12.0803 4.68744C12.0803 4.4553 12.0345 4.22543 11.9457 4.01095C11.8569 3.79647 11.7267 3.6016 11.5625 3.43744C11.3983 3.27329 11.2035 3.14308 10.989 3.05424C10.7745 2.9654 10.5446 2.91968 10.3125 2.91968C10.0804 2.91968 9.85048 2.9654 9.63601 3.05424C9.42153 3.14308 9.22665 3.27329 9.0625 3.43744L2.5 9.99994V12.4999Z" stroke="#367BFF" stroke-width="1.5" stroke-linecap="round" stroke-linejoin="round"/>
<path d="M8.4375 4.0625L10.9375 6.5625" stroke="#367BFF" stroke-width="1.5" stroke-linecap="round" stroke-linejoin="round"/>
</g>
<defs>
<clipPath id="clip0_214_406">
<rect width="15" height="15" fill="white"/>
</clipPath>
</defs>
</svg>
