<svg width="20" height="20" viewBox="0 0 20 20" fill="none" xmlns="http://www.w3.org/2000/svg">
<g clip-path="url(#clip0_208_274)">
<path d="M10 2.5C11.9466 4.22215 14.4871 5.11881 17.0834 5C17.4614 6.28585 17.577 7.63456 17.4235 8.96598C17.2699 10.2974 16.8503 11.5844 16.1895 12.7504C15.5288 13.9165 14.6403 14.9378 13.5771 15.7537C12.5138 16.5696 11.2973 17.1635 10 17.5C8.7027 17.1635 7.48626 16.5696 6.42298 15.7537C5.3597 14.9378 4.47128 13.9165 3.81052 12.7504C3.14976 11.5844 2.73014 10.2974 2.57659 8.96598C2.42304 7.63456 2.5387 6.28585 2.91669 5C5.51296 5.11881 8.0535 4.22215 10 2.5Z" stroke="#367BFF" stroke-width="2" stroke-linecap="round" stroke-linejoin="round"/>
<path d="M9.16675 9.16671C9.16675 9.38772 9.25455 9.59968 9.41083 9.75596C9.56711 9.91224 9.77907 10 10.0001 10C10.2211 10 10.4331 9.91224 10.5893 9.75596C10.7456 9.59968 10.8334 9.38772 10.8334 9.16671C10.8334 8.94569 10.7456 8.73373 10.5893 8.57745C10.4331 8.42117 10.2211 8.33337 10.0001 8.33337C9.77907 8.33337 9.56711 8.42117 9.41083 8.57745C9.25455 8.73373 9.16675 8.94569 9.16675 9.16671Z" stroke="#367BFF" stroke-width="2" stroke-linecap="round" stroke-linejoin="round"/>
<path d="M10 10V12.0833" stroke="#367BFF" stroke-width="2" stroke-linecap="round" stroke-linejoin="round"/>
</g>
<defs>
<clipPath id="clip0_208_274">
<rect width="20" height="20" fill="white"/>
</clipPath>
</defs>
</svg>
