<?xml version="1.0" standalone="no"?>
<!DOCTYPE svg PUBLIC "-//W3C//DTD SVG 20010904//EN"
 "http://www.w3.org/TR/2001/REC-SVG-20010904/DTD/svg10.dtd">
<svg version="1.0" xmlns="http://www.w3.org/2000/svg"
 width="700.000000pt" height="700.000000pt" viewBox="0 0 700.000000 700.000000"
 preserveAspectRatio="xMidYMid meet">
<metadata>
Created by potrace 1.14, written by Peter Selinger 2001-2017
</metadata>
<g transform="translate(0.000000,700.000000) scale(0.100000,-0.100000)"
fill="#000000" stroke="none">
<path d="M2539 5586 c-2 -2 -87 -7 -189 -11 -102 -3 -203 -8 -225 -10 -22 -2
-80 -7 -130 -10 -82 -5 -151 -11 -230 -20 -16 -2 -57 -6 -90 -10 -50 -5 -137
-19 -261 -40 -115 -19 -273 -86 -400 -170 -196 -129 -439 -372 -601 -600 -74
-105 -73 -107 17 -20 106 102 96 93 225 200 197 163 441 338 550 392 69 35
213 77 300 88 17 2 48 7 70 10 79 13 120 18 240 30 163 16 385 26 677 30 l197
3 19 -32 c16 -27 138 -182 167 -212 5 -6 24 -28 40 -49 17 -21 35 -43 40 -49
6 -6 44 -51 85 -101 41 -49 77 -92 80 -95 3 -3 61 -72 130 -155 68 -82 127
-152 130 -155 7 -7 102 -121 117 -140 11 -14 -75 -16 -845 -14 -684 1 -862 -1
-882 -11 -14 -7 -53 -36 -88 -64 -36 -29 -77 -53 -97 -57 -32 -6 -322 -2 -935
10 -192 4 -194 4 -105 -9 50 -7 110 -16 135 -20 25 -4 58 -9 73 -11 268 -34
640 -105 688 -130 68 -35 170 -175 419 -574 170 -272 206 -326 235 -353 19
-18 20 -18 23 2 5 33 -61 207 -173 456 -102 226 -127 299 -128 376 -1 91 66
144 194 155 41 3 90 7 109 9 182 19 1689 28 1971 13 147 -8 327 -40 373 -67
27 -15 28 -18 22 -74 -8 -82 -50 -198 -156 -442 -103 -233 -136 -317 -155
-387 -37 -136 49 -25 345 447 145 232 311 481 347 522 28 32 79 59 143 74 127
31 602 33 818 3 17 -2 44 -6 60 -8 93 -12 130 -19 157 -26 17 -5 44 -11 60
-14 103 -16 287 -80 375 -130 105 -59 167 -170 209 -374 13 -63 13 -64 4 -59
-14 9 -126 18 -208 18 -432 -3 -869 -145 -1220 -396 -170 -122 -335 -295 -335
-352 0 -45 77 -78 209 -90 134 -13 600 -6 781 12 19 2 76 6 125 10 93 7 104 8
215 20 150 15 317 136 425 309 l50 79 5 -49 c7 -64 4 -632 -4 -754 -3 -52 -9
-135 -12 -185 -4 -49 -6 -97 -6 -105 0 -8 -1 -26 -4 -40 l-4 -25 -148 0 c-157
-1 -280 -8 -432 -26 -185 -23 -182 -40 11 -63 175 -21 315 -29 534 -30 105 -1
193 -5 196 -10 14 -19 -30 -184 -54 -204 -8 -7 -189 -12 -484 -14 l-471 -3 5
46 c7 60 -17 111 -114 241 -84 112 -343 377 -437 449 -241 181 -330 230 -468
259 -90 18 -125 23 -273 35 -38 3 -92 8 -120 10 -334 28 -1981 28 -2520 0
-278 -14 -288 -17 -390 -84 -83 -55 -371 -334 -361 -350 17 -27 46 -8 175 108
135 122 144 130 200 169 l53 37 382 -1 c332 0 746 -7 1096 -19 58 -2 188 -6
290 -10 102 -3 232 -8 290 -10 58 -2 166 -7 240 -10 74 -3 169 -8 210 -10 41
-3 122 -7 180 -10 168 -8 261 -16 385 -31 22 -3 58 -14 79 -25 59 -31 136 -82
130 -88 -3 -3 -712 -5 -1577 -4 -1332 0 -1797 -4 -1692 -16 11 -1 29 -4 39 -6
40 -8 393 -24 876 -40 349 -12 426 -14 665 -21 138 -3 300 -7 360 -9 109 -3
628 -14 945 -20 91 -2 251 -4 355 -5 l190 -1 90 -84 c50 -46 88 -85 85 -86 -3
0 -102 -2 -220 -4 -470 -7 -1076 -16 -1280 -20 -118 -2 -381 -6 -585 -10 -203
-3 -473 -8 -600 -10 -276 -6 -763 -14 -859 -15 -118 0 -65 -12 114 -24 41 -3
109 -8 150 -11 41 -3 131 -7 200 -10 237 -9 385 -15 505 -20 66 -3 206 -7 310
-10 105 -3 244 -7 310 -10 66 -2 233 -7 370 -10 138 -3 315 -8 395 -10 127 -3
375 -9 915 -20 83 -2 219 -4 303 -5 l154 -2 29 -46 c33 -52 37 -78 12 -86 -85
-24 -1694 -57 -4083 -81 -1136 -12 -1059 -9 -1197 -44 -167 -42 -204 -61 -150
-75 12 -3 92 -3 177 -1 85 3 690 7 1345 10 655 2 1821 7 2591 10 1135 5 1403
3 1406 -7 3 -7 6 -52 7 -100 l2 -88 -133 -1 c-73 0 -236 -2 -363 -4 -126 -2
-441 -6 -700 -10 -258 -3 -573 -8 -700 -10 -126 -2 -399 -7 -605 -10 -206 -3
-469 -8 -585 -10 -115 -2 -354 -7 -530 -10 -862 -16 -1543 -36 -1711 -50 -56
-5 -71 -15 -23 -16 19 0 68 -3 109 -5 98 -4 2225 -4 2760 1 228 2 696 6 1040
9 344 3 823 8 1065 11 242 3 669 8 948 10 504 4 611 9 633 26 13 11 41 148 43
216 1 15 9 23 29 28 64 14 131 112 158 230 25 113 9 190 -46 217 l-35 18 -1
377 c-1 345 -10 746 -19 833 -1 19 -6 75 -10 125 -4 49 -8 92 -10 95 -1 3 -6
32 -10 65 -3 33 -15 101 -26 150 -11 50 -22 98 -24 109 -35 161 -104 246 -260
324 -79 39 -220 86 -325 107 -47 10 -89 18 -95 20 -16 3 -108 18 -130 21 -11
1 -27 3 -35 4 -8 1 -1 5 15 9 34 8 128 6 295 -6 63 -4 169 -8 235 -8 117 0
122 1 190 34 121 60 255 219 255 303 0 23 -7 32 -32 43 -58 24 -99 27 -333 30
-209 3 -337 -5 -472 -29 -91 -17 -195 -95 -268 -201 -21 -30 -39 -55 -41 -55
-1 0 -35 44 -75 98 -274 362 -596 655 -874 794 -117 59 -288 104 -469 124 -23
2 -54 6 -71 9 -16 2 -61 7 -100 10 -38 3 -90 8 -113 10 -24 3 -90 7 -145 10
-56 3 -138 8 -182 11 -90 6 -1231 15 -1236 10z m1136 -171 c255 -13 230 -7
291 -71 119 -124 277 -294 307 -330 18 -20 47 -53 64 -73 58 -64 43 -67 -59
-9 -131 74 -757 465 -782 489 -5 5 8 6 30 4 21 -2 89 -7 149 -10z m710 -70
c196 -44 480 -250 893 -650 68 -66 127 -122 130 -125 4 -3 36 -36 72 -73 l65
-68 -69 2 c-67 2 -69 3 -140 59 -85 69 -321 263 -356 293 -13 11 -117 95 -230
186 -113 91 -210 170 -216 176 -6 5 -68 55 -137 110 -70 55 -127 103 -127 108
0 4 10 5 23 2 12 -2 54 -12 92 -20z m2298 -1756 c45 -12 45 -12 -15 -139 -38
-80 -120 -214 -138 -225 -4 -3 -2 16 6 41 16 55 27 122 29 184 1 42 -3 69 -19
131 -7 25 -7 25 46 22 29 -2 70 -8 91 -14z m-276 6 c82 -14 88 -168 14 -390
l-36 -110 -47 -22 c-25 -13 -68 -25 -95 -28 -182 -18 -240 -23 -368 -30 -60
-4 -135 -8 -165 -10 -187 -12 -630 -24 -648 -17 -34 12 181 188 378 308 252
153 479 235 785 283 143 22 144 22 182 16z"/>
<path d="M6304 3499 c-4 -7 -8 -26 -10 -43 -15 -145 -35 -220 -64 -236 -26
-14 -95 -28 -175 -35 -38 -4 -80 -8 -92 -10 -12 -2 -68 -6 -125 -10 -57 -4
-125 -8 -153 -10 -27 -2 -104 -6 -170 -10 -133 -8 -155 -15 -155 -49 0 -45 18
-49 180 -42 83 4 160 9 173 11 12 2 65 6 117 10 52 3 104 8 115 10 11 2 49 7
85 10 36 3 76 7 90 10 14 2 42 6 62 9 64 10 117 36 137 70 48 78 82 296 50
317 -20 12 -56 11 -65 -2z"/>
<path d="M285 3440 c33 -15 105 -44 160 -64 351 -128 816 -335 853 -379 19
-22 -7 -28 -178 -42 -54 -4 -417 -16 -585 -19 -126 -3 -195 -20 -195 -50 0
-20 47 -22 535 -20 459 2 481 5 525 62 27 34 25 56 -7 91 -50 54 -394 209
-677 305 -137 47 -467 146 -481 145 -5 0 17 -13 50 -29z"/>
<path d="M6065 2682 c-154 -27 -242 -177 -180 -309 55 -119 179 -169 296 -120
47 19 106 83 122 131 34 102 -14 224 -106 272 -32 17 -104 31 -132 26z m23
-141 c69 -37 69 -148 0 -191 -83 -52 -195 27 -168 120 22 77 98 109 168 71z"/>
</g>
</svg>
