<?xml version="1.0" standalone="no"?>
<!DOCTYPE svg PUBLIC "-//W3C//DTD SVG 20010904//EN"
 "http://www.w3.org/TR/2001/REC-SVG-20010904/DTD/svg10.dtd">
<svg version="1.0" xmlns="http://www.w3.org/2000/svg"
 width="1000.000000pt" height="1000.000000pt" viewBox="0 0 1000.000000 1000.000000"
 preserveAspectRatio="xMidYMid meet">
<metadata>
Created by potrace 1.14, written by Peter Selinger 2001-2017
</metadata>
<g transform="translate(0.000000,1000.000000) scale(0.100000,-0.100000)"
fill="#000000" stroke="none">
<path d="M879 9996 c-2 -2 -21 -7 -41 -10 -55 -9 -123 -25 -163 -40 -11 -5
-38 -15 -60 -23 -70 -25 -218 -119 -287 -183 -124 -112 -224 -268 -278 -430
-52 -154 -49 82 -49 -4315 0 -3991 0 -4102 19 -4191 62 -298 243 -541 510
-686 76 -41 151 -68 255 -93 l100 -24 4105 0 c3649 0 4114 1 4185 15 207 40
379 129 521 269 91 90 153 179 208 296 38 83 50 118 83 244 4 17 9 1884 10
4150 2 4422 5 4163 -46 4329 -92 298 -335 543 -641 646 -151 51 82 48 -4321
49 -2258 0 -4108 -1 -4110 -3z"/>
</g>
</svg>
