<svg width="30" height="30" viewBox="0 0 30 30" fill="none" xmlns="http://www.w3.org/2000/svg">
<g clip-path="url(#clip0_182_395)">
<path d="M21.25 4.17499C23.1353 5.26356 24.7037 6.82564 25.7998 8.70661C26.8959 10.5876 27.4817 12.7222 27.4993 14.8992C27.5169 17.0761 26.9656 19.2199 25.9 21.1184C24.8345 23.0168 23.2916 24.604 21.4241 25.7229C19.5566 26.8418 17.4292 27.4535 15.2526 27.4976C13.076 27.5416 10.9257 27.0164 9.01444 25.974C7.1032 24.9316 5.49734 23.4081 4.35583 21.5544C3.21433 19.7006 2.57676 17.5809 2.50625 15.405L2.5 15L2.50625 14.595C2.57625 12.4362 3.20443 10.3324 4.32955 8.48873C5.45466 6.64502 7.03832 5.1243 8.92612 4.07484C10.8139 3.02538 12.9414 2.48298 15.1013 2.50053C17.2611 2.51809 19.3795 3.09498 21.25 4.17499ZM19.9363 12.73C19.8394 12.4394 19.6393 12.1945 19.3739 12.0417C19.1084 11.889 18.7961 11.839 18.4963 11.9012L18.355 11.9387L15 13.0575L11.645 11.9387L11.5037 11.9012C11.2042 11.8396 10.8924 11.8899 10.6274 12.0427C10.3624 12.1955 10.1626 12.4401 10.0659 12.7303C9.96918 13.0205 9.98221 13.336 10.1025 13.6173C10.2228 13.8985 10.4421 14.1258 10.7188 14.2562L10.855 14.3112L13.75 15.275V16.495L11.46 19.9325L11.385 20.0575C11.2583 20.3064 11.2186 20.5907 11.2723 20.8648C11.326 21.139 11.47 21.3872 11.6813 21.57L11.8062 21.665L11.9325 21.74C12.1815 21.8667 12.4657 21.9064 12.7398 21.8527C13.014 21.799 13.2622 21.655 13.445 21.4437L13.54 21.3187L15 19.1287L16.46 21.3187L16.5475 21.435C16.7458 21.6688 17.0231 21.8215 17.3267 21.8641C17.6303 21.9068 17.939 21.8364 18.194 21.6664C18.4491 21.4963 18.6328 21.2385 18.7102 20.9418C18.7876 20.6452 18.7533 20.3305 18.6138 20.0575L18.54 19.9325L16.25 16.495V15.2737L19.145 14.31L19.2812 14.255C19.5584 14.1249 19.7781 13.8977 19.8989 13.6164C20.0196 13.3351 20.0329 13.0192 19.9363 12.7287V12.73ZM15 7.49999C14.5027 7.49999 14.0258 7.69753 13.6742 8.04916C13.3225 8.40079 13.125 8.87771 13.125 9.37499C13.125 9.87227 13.3225 10.3492 13.6742 10.7008C14.0258 11.0524 14.5027 11.25 15 11.25C15.4973 11.25 15.9742 11.0524 16.3258 10.7008C16.6775 10.3492 16.875 9.87227 16.875 9.37499C16.875 8.87771 16.6775 8.40079 16.3258 8.04916C15.9742 7.69753 15.4973 7.49999 15 7.49999Z" fill="black"/>
</g>
<defs>
<clipPath id="clip0_182_395">
<rect width="30" height="30" fill="white"/>
</clipPath>
</defs>
</svg>
