<svg width="30" height="30" viewBox="0 0 30 30" fill="none" xmlns="http://www.w3.org/2000/svg">
<path d="M17.7937 23.75C18.875 23.75 19.4462 25.03 18.725 25.835C18.2564 26.3593 17.6824 26.7787 17.0404 27.0656C16.3985 27.3526 15.7031 27.5006 15 27.5C14.2968 27.5006 13.6015 27.3526 12.9595 27.0656C12.3176 26.7787 11.7435 26.3593 11.275 25.835C10.585 25.065 11.0775 23.8612 12.0675 23.7587L12.205 23.7512L17.7937 23.75Z" fill="black"/>
<path d="M14.9999 2.5C16.6974 2.5 18.1324 3.62875 18.5937 5.17625L18.6512 5.39L18.6612 5.44375C20.0392 6.22113 21.2134 7.31388 22.0877 8.6325C22.962 9.95112 23.5115 11.4581 23.6912 13.03L23.7262 13.3888L23.7499 13.75V17.4137L23.7762 17.5838C23.9473 18.5048 24.457 19.3284 25.2049 19.8925L25.4137 20.0387L25.6162 20.1625C26.6912 20.7712 26.3162 22.37 25.1449 22.4925L24.9999 22.5H4.99993C3.71493 22.5 3.26618 20.795 4.38368 20.1625C4.85997 19.893 5.27149 19.5224 5.58936 19.077C5.90722 18.6315 6.12373 18.1218 6.22368 17.5838L6.24993 17.405L6.25118 13.6925C6.3274 12.0598 6.80263 10.4708 7.63529 9.06433C8.46795 7.65791 9.63264 6.47701 11.0274 5.625L11.3374 5.4425L11.3499 5.38875C11.5268 4.64128 11.9286 3.96605 12.5013 3.45417C13.074 2.94229 13.7899 2.61842 14.5524 2.52625L14.7799 2.505L14.9999 2.5Z" fill="black"/>
</svg>
