<svg width="50" height="50" viewBox="0 0 50 50" fill="none" xmlns="http://www.w3.org/2000/svg">
<g clip-path="url(#clip0_94_65)">
<g filter="url(#filter0_d_94_65)">
<path d="M40 38.3333C35.4047 38.3333 31.6667 34.5953 31.6667 30C31.6667 27.0417 33.2182 24.4396 35.5484 22.9604L39.2547 30.3729C39.4005 30.6651 39.6948 30.8339 40.001 30.8339C40.1255 30.8339 40.2531 30.8052 40.3729 30.7453C40.7844 30.5396 40.9516 30.0391 40.7453 29.6271L37.0375 22.2125C37.9589 21.8609 38.9573 21.6667 40 21.6667C44.5953 21.6667 48.3333 25.4047 48.3333 30C48.3333 34.5953 44.5953 38.3333 40 38.3333ZM26.0036 26.8214C25.687 26.7214 25.3495 26.6667 25 26.6667C24.7552 26.6667 24.5172 26.6938 24.2875 26.7438L19.438 17.5H31.8297L26.0036 26.8214ZM26.6667 30C26.6667 30.9188 25.9188 31.6667 25 31.6667C24.9641 31.6667 24.9292 31.6635 24.8938 31.6615L25.6932 30.462C25.6958 30.4583 25.6979 30.4542 25.7005 30.4505C25.7021 30.4474 25.7047 30.4448 25.7068 30.4417L26.4708 29.2182C26.5953 29.4521 26.6667 29.7177 26.6667 30ZM10 38.3333C5.40469 38.3333 1.66667 34.5953 1.66667 30C1.66667 25.4047 5.40469 21.6667 10 21.6667C11.3234 21.6667 12.5745 21.9781 13.6865 22.5286L9.29323 29.5583C9.13281 29.8151 9.12448 30.1391 9.27135 30.4042C9.41823 30.6688 9.6974 30.8333 10 30.8333H18.2917C17.8719 35.0385 14.3135 38.3333 10 38.3333ZM18.2917 29.1667H11.5036L15.0979 23.4151C16.8578 24.7807 18.0589 26.8328 18.2917 29.1667ZM24.538 29.1667H23.5589C23.8474 28.6693 24.3849 28.3333 25 28.3333C25.0193 28.3333 25.038 28.3354 25.0568 28.3359L24.538 29.1667ZM18.1219 18.5781L22.8005 27.4979C22.3068 27.9328 21.9417 28.5109 21.7719 29.1667H19.9651C19.7219 26.238 18.2125 23.6635 15.9865 21.9943L18.1219 18.5781ZM40 20C38.6896 20 37.437 20.2536 36.2891 20.7146L33.0151 14.1667H37.5C37.9594 14.1667 38.3333 14.5406 38.3333 15C38.3333 15.4594 37.9594 15.8333 37.5 15.8333C37.0396 15.8333 36.6667 16.2063 36.6667 16.6667C36.6667 17.1271 37.0396 17.5 37.5 17.5C38.8786 17.5 40 16.3786 40 15C40 13.6214 38.8786 12.5 37.5 12.5H31.6667C31.3776 12.5 31.1094 12.6495 30.9578 12.8953C30.8063 13.1406 30.7922 13.4479 30.9214 13.7063L31.9849 15.8333H18.5641L16.3781 11.6667H17.5C17.9604 11.6667 18.3333 11.2938 18.3333 10.8333C18.3333 10.3729 17.9604 10 17.5 10H12.5C12.0396 10 11.6667 10.3729 11.6667 10.8333C11.6667 11.2938 12.0396 11.6667 12.5 11.6667H14.4964L17.2245 16.8682L14.574 21.1094C13.2021 20.401 11.6469 20 10 20C4.48594 20 0 24.4859 0 30C0 35.5141 4.48594 40 10 40C15.2333 40 19.5401 35.9589 19.9651 30.8333H21.7719C21.9073 31.3568 22.1672 31.8302 22.5177 32.2214L20.9734 34.5375C20.8406 34.737 20.8 34.9828 20.8615 35.2141C20.9224 35.4448 21.0802 35.6385 21.2938 35.7453L22.9604 36.5786C23.0802 36.6385 23.2078 36.6672 23.3323 36.6672C23.6385 36.6672 23.9328 36.4984 24.0786 36.2063C24.2849 35.7943 24.1172 35.2938 23.7063 35.088L22.8839 34.6771L23.9036 33.1474C24.2474 33.2672 24.6156 33.3333 25 33.3333C26.838 33.3333 28.3333 31.838 28.3333 30C28.3333 29.112 27.9839 28.3047 27.4156 27.7068L33.2526 18.3682L34.7995 21.462C31.9234 23.2203 30 26.3896 30 30C30 35.5141 34.4859 40 40 40C45.5141 40 50 35.5141 50 30C50 24.4859 45.5141 20 40 20Z" fill="#666666"/>
</g>
</g>
<defs>
<filter id="filter0_d_94_65" x="-6" y="8" width="62" height="42" filterUnits="userSpaceOnUse" color-interpolation-filters="sRGB">
<feFlood flood-opacity="0" result="BackgroundImageFix"/>
<feColorMatrix in="SourceAlpha" type="matrix" values="0 0 0 0 0 0 0 0 0 0 0 0 0 0 0 0 0 0 127 0" result="hardAlpha"/>
<feOffset dy="4"/>
<feGaussianBlur stdDeviation="3"/>
<feComposite in2="hardAlpha" operator="out"/>
<feColorMatrix type="matrix" values="0 0 0 0 0 0 0 0 0 0 0 0 0 0 0 0 0 0 0.2 0"/>
<feBlend mode="normal" in2="BackgroundImageFix" result="effect1_dropShadow_94_65"/>
<feBlend mode="normal" in="SourceGraphic" in2="effect1_dropShadow_94_65" result="shape"/>
</filter>
<clipPath id="clip0_94_65">
<rect width="50" height="50" fill="white"/>
</clipPath>
</defs>
</svg>
