<svg width="50" height="50" viewBox="0 0 50 50" fill="none" xmlns="http://www.w3.org/2000/svg">
<g clip-path="url(#clip0_94_38)">
<g filter="url(#filter0_d_94_38)">
<mask id="mask0_94_38" style="mask-type:luminance" maskUnits="userSpaceOnUse" x="0" y="16" width="50" height="16">
<path d="M0.0598145 16.3438H49.9364V31.8229H0.0598145V16.3438Z" fill="white"/>
</mask>
<g mask="url(#mask0_94_38)">
<path d="M33.2212 22.2659H23.0801C22.9223 22.2659 22.7941 22.1383 22.7941 21.9799V17.9393C22.7941 17.7778 22.928 17.6482 23.0894 17.6534C25.6608 17.7377 28.2207 18.2263 30.3952 19.6877C31.4504 20.3971 32.3176 21.3232 33.2577 22.1695C33.2957 22.2034 33.2723 22.2659 33.2212 22.2659ZM21.3103 21.9799C21.3103 22.1383 21.1821 22.2659 21.0243 22.2659C19.828 22.2659 18.7868 22.2659 17.5634 22.2659C16.5848 22.2659 15.6056 22.2601 14.6285 22.1935C13.7165 22.131 12.7275 22.0794 11.8993 21.6502C11.529 21.4586 11.1811 21.0617 11.5071 20.6664C11.5103 20.6627 11.5139 20.6586 11.517 20.6549C13.9749 18.0138 17.6306 17.7544 21.0165 17.6601C21.1775 17.6555 21.3103 17.7846 21.3103 17.9461V21.9799ZM49.9212 27.4716C49.9103 27.3185 49.7837 27.1997 49.6301 27.1982C49.4988 27.1971 49.391 27.0961 49.391 26.9648V26.732C49.391 25.7737 49.0988 25.3596 49.0353 25.2815C49.0249 25.2685 49.015 25.2544 49.0056 25.2404C47.715 23.3914 37.366 21.7758 35.9098 21.5565C35.7967 21.5393 35.6889 21.4997 35.5926 21.4388C34.1889 20.5586 32.8316 19.4377 31.4629 18.5086C30.2061 17.6555 28.5358 17.0216 27.0353 16.7607C24.7801 16.3685 22.4816 16.3065 20.1973 16.3617C17.9436 16.4153 15.6754 16.432 13.4676 16.9419C11.3926 17.4211 9.5285 18.5419 7.61861 19.4648C7.06079 19.7346 6.50871 20.0143 5.96131 20.3023C5.57225 20.5075 5.18579 20.7169 4.8035 20.9336C4.70142 20.9914 4.58683 21.0221 4.46913 21.0221H2.50767C0.326938 21.0221 0.52173 25.0836 0.628501 26.2997C0.647772 26.5148 0.566521 26.7258 0.40923 26.8737L0.408709 26.8742C0.163917 27.0997 0.0363132 27.4263 0.0633964 27.7581C0.411834 32.0601 4.89361 31.82 5.48788 31.7695C5.27329 31.2226 5.16496 30.6461 5.16496 30.0529C5.16496 29.419 5.28892 28.8034 5.53423 28.2232C5.77121 27.6638 6.10975 27.1617 6.541 26.7305C6.97225 26.2992 7.47486 25.9601 8.03423 25.7237C8.61392 25.4784 9.22954 25.3539 9.8634 25.3539C10.4978 25.3539 11.1129 25.4784 11.6926 25.7237C12.2525 25.9601 12.7551 26.2992 13.1863 26.7305C13.617 27.1617 13.9561 27.6638 14.1931 28.2232C14.4379 28.8034 14.5624 29.419 14.5624 30.0529C14.5624 30.6456 14.454 31.2221 14.2389 31.7685L35.6233 31.782C35.4045 31.2315 35.2941 30.6502 35.2941 30.0529C35.2941 29.419 35.4186 28.8034 35.6639 28.2232C35.9009 27.6638 36.2394 27.1617 36.6707 26.7305C37.1019 26.2992 37.604 25.9601 38.1639 25.7237C38.7441 25.4784 39.3592 25.3539 39.9936 25.3539C40.6269 25.3539 41.2426 25.4784 41.8223 25.7237C42.3821 25.9601 42.8848 26.2992 43.316 26.7305C43.7473 27.1617 44.0858 27.6638 44.3228 28.2232C44.5676 28.8034 44.692 29.419 44.692 30.0529C44.692 30.6523 44.5811 31.2357 44.3613 31.7877L46.6071 31.7888C48.0243 31.7888 48.6712 31.156 48.791 31.0237C48.8124 30.9997 48.8342 30.9768 48.8566 30.9539C49.9655 29.8008 49.9686 28.1237 49.9212 27.4716Z" fill="#666666"/>
</g>
</g>
<g filter="url(#filter1_d_94_38)">
<mask id="mask1_94_38" style="mask-type:luminance" maskUnits="userSpaceOnUse" x="6" y="26" width="8" height="8">
<path d="M6.1333 26.4H13.6V33.6437H6.1333V26.4Z" fill="white"/>
</mask>
<g mask="url(#mask1_94_38)">
<path d="M9.86341 26.449C7.87331 26.449 6.25977 28.0625 6.25977 30.0526C6.25977 32.0396 7.87643 33.6563 9.86341 33.6563C11.854 33.6563 13.4676 32.0427 13.4676 30.0526C13.4676 28.0656 11.8504 26.449 9.86341 26.449Z" fill="#666666"/>
</g>
</g>
<g filter="url(#filter2_d_94_38)">
<mask id="mask2_94_38" style="mask-type:luminance" maskUnits="userSpaceOnUse" x="36" y="26" width="8" height="8">
<path d="M36.2666 26.4H43.5999V33.6437H36.2666V26.4Z" fill="white"/>
</mask>
<g mask="url(#mask2_94_38)">
<path d="M39.9936 26.449C38.0029 26.449 36.3894 28.0625 36.3894 30.0526C36.3894 32.0396 38.0061 33.6563 39.9936 33.6563C41.9837 33.6563 43.5967 32.0427 43.5972 30.0526C43.5972 28.0656 41.9806 26.449 39.9936 26.449Z" fill="#666666"/>
</g>
</g>
</g>
<defs>
<filter id="filter0_d_94_38" x="-5.94019" y="14.3443" width="61.876" height="27.4447" filterUnits="userSpaceOnUse" color-interpolation-filters="sRGB">
<feFlood flood-opacity="0" result="BackgroundImageFix"/>
<feColorMatrix in="SourceAlpha" type="matrix" values="0 0 0 0 0 0 0 0 0 0 0 0 0 0 0 0 0 0 127 0" result="hardAlpha"/>
<feOffset dy="4"/>
<feGaussianBlur stdDeviation="3"/>
<feComposite in2="hardAlpha" operator="out"/>
<feColorMatrix type="matrix" values="0 0 0 0 0 0 0 0 0 0 0 0 0 0 0 0 0 0 0.2 0"/>
<feBlend mode="normal" in2="BackgroundImageFix" result="effect1_dropShadow_94_38"/>
<feBlend mode="normal" in="SourceGraphic" in2="effect1_dropShadow_94_38" result="shape"/>
</filter>
<filter id="filter1_d_94_38" x="0.259766" y="24.449" width="19.2078" height="19.1948" filterUnits="userSpaceOnUse" color-interpolation-filters="sRGB">
<feFlood flood-opacity="0" result="BackgroundImageFix"/>
<feColorMatrix in="SourceAlpha" type="matrix" values="0 0 0 0 0 0 0 0 0 0 0 0 0 0 0 0 0 0 127 0" result="hardAlpha"/>
<feOffset dy="4"/>
<feGaussianBlur stdDeviation="3"/>
<feComposite in2="hardAlpha" operator="out"/>
<feColorMatrix type="matrix" values="0 0 0 0 0 0 0 0 0 0 0 0 0 0 0 0 0 0 0.2 0"/>
<feBlend mode="normal" in2="BackgroundImageFix" result="effect1_dropShadow_94_38"/>
<feBlend mode="normal" in="SourceGraphic" in2="effect1_dropShadow_94_38" result="shape"/>
</filter>
<filter id="filter2_d_94_38" x="30.3894" y="24.449" width="19.2078" height="19.1948" filterUnits="userSpaceOnUse" color-interpolation-filters="sRGB">
<feFlood flood-opacity="0" result="BackgroundImageFix"/>
<feColorMatrix in="SourceAlpha" type="matrix" values="0 0 0 0 0 0 0 0 0 0 0 0 0 0 0 0 0 0 127 0" result="hardAlpha"/>
<feOffset dy="4"/>
<feGaussianBlur stdDeviation="3"/>
<feComposite in2="hardAlpha" operator="out"/>
<feColorMatrix type="matrix" values="0 0 0 0 0 0 0 0 0 0 0 0 0 0 0 0 0 0 0.2 0"/>
<feBlend mode="normal" in2="BackgroundImageFix" result="effect1_dropShadow_94_38"/>
<feBlend mode="normal" in="SourceGraphic" in2="effect1_dropShadow_94_38" result="shape"/>
</filter>
<clipPath id="clip0_94_38">
<rect width="50" height="50" fill="white"/>
</clipPath>
</defs>
</svg>
