<svg width="50" height="50" viewBox="0 0 50 50" fill="none" xmlns="http://www.w3.org/2000/svg">
<g clip-path="url(#clip0_94_54)">
<g filter="url(#filter0_d_94_54)">
<path d="M9.08649 40.2C8.82087 40.2 8.55576 40.187 8.2917 40.1609C8.02712 40.1349 7.76462 40.0958 7.5042 40.0443C7.24378 39.9922 6.98597 39.9281 6.7318 39.8505C6.47764 39.7734 6.22764 39.6844 5.98232 39.5828C5.73701 39.4807 5.49691 39.3672 5.26305 39.2422C5.02868 39.1167 4.80107 38.9802 4.58024 38.8328C4.35941 38.6854 4.14587 38.5271 3.94066 38.3583C3.73545 38.1901 3.53857 38.012 3.35107 37.824C3.16305 37.6359 2.98493 37.4396 2.81618 37.2338C2.64795 37.0286 2.48962 36.8156 2.34222 36.5943C2.19482 36.3734 2.05837 36.1458 1.93285 35.9115C1.80785 35.6771 1.6943 35.4375 1.59274 35.1922C1.49118 34.9463 1.40212 34.6969 1.32503 34.4422C1.24795 34.188 1.18337 33.9307 1.13128 33.6703C1.07972 33.4094 1.04066 33.1469 1.01514 32.8828C0.989095 32.6182 0.976074 32.3531 0.976074 32.0875C0.976074 31.8219 0.989095 31.5568 1.01514 31.2927C1.04118 31.0281 1.08024 30.7656 1.13232 30.5052C1.18441 30.2443 1.24847 29.987 1.32607 29.7328C1.40316 29.4786 1.49274 29.2286 1.5943 28.9833C1.69587 28.738 1.80941 28.4979 1.93493 28.2641C2.06045 28.0297 2.19691 27.8021 2.3443 27.5812C2.49222 27.3604 2.65003 27.1474 2.81878 26.9422C2.98753 26.7365 3.16566 26.5401 3.35368 26.3521C3.5417 26.1646 3.73805 25.9865 3.94378 25.8177C4.14899 25.6495 4.36201 25.4917 4.58337 25.3437C4.8042 25.1963 5.0318 25.0599 5.26618 24.9349C5.50055 24.8099 5.74066 24.6963 5.98597 24.5948C6.23128 24.4932 6.48128 24.4042 6.73545 24.3271C6.98962 24.25 7.24743 24.1854 7.50785 24.1338C7.76826 24.0823 8.03076 24.0432 8.29535 24.0177C8.55993 23.9917 8.82503 23.9786 9.09066 23.9786C9.35628 23.9786 9.62139 23.9922 9.88545 24.0182C10.15 24.0443 10.4125 24.0833 10.6729 24.1354C10.9334 24.1875 11.1907 24.2521 11.4448 24.3292C11.6995 24.4062 11.949 24.4958 12.1943 24.5979C12.4396 24.6995 12.6797 24.813 12.9141 24.9385C13.148 25.0641 13.3756 25.2005 13.5964 25.3484C13.8172 25.4958 14.0302 25.6542 14.2354 25.8229C14.4407 25.9917 14.6375 26.1698 14.825 26.3578C15.0131 26.5458 15.1912 26.7422 15.3594 26.9479C15.5276 27.1531 15.686 27.3667 15.8334 27.5875C15.9808 27.8083 16.1172 28.0365 16.2422 28.2708C16.3672 28.5052 16.4802 28.7448 16.5818 28.9906C16.6834 29.2359 16.773 29.4859 16.8495 29.7401C16.9266 29.9943 16.9912 30.2521 17.0427 30.5125C17.0943 30.7729 17.1328 31.0354 17.1589 31.3C17.1849 31.5646 17.1974 31.8297 17.1974 32.0953C17.1969 32.3604 17.1834 32.6255 17.1573 32.8896C17.1308 33.1536 17.0917 33.4161 17.0396 33.676C16.9875 33.9365 16.9229 34.1937 16.8453 34.4479C16.7683 34.7016 16.6787 34.951 16.5766 35.1963C16.475 35.4417 16.3615 35.6812 16.236 35.9151C16.111 36.149 15.9745 36.3766 15.8266 36.5969C15.6792 36.8177 15.5209 37.0307 15.3526 37.2359C15.1839 37.4406 15.0058 37.6375 14.8183 37.825C14.6302 38.0125 14.4339 38.1906 14.2287 38.3588C14.0235 38.5271 13.8104 38.6854 13.5896 38.8328C13.3688 38.9802 13.1417 39.1167 12.9073 39.2417C12.6735 39.3667 12.4334 39.4802 12.1881 39.5818C11.9433 39.6833 11.6933 39.7729 11.4396 39.85C11.1854 39.9271 10.9282 39.9917 10.6677 40.0432C10.4073 40.0953 10.1453 40.1344 9.88128 40.1604C9.61722 40.187 9.35212 40.2 9.08649 40.2ZM9.08649 26.6766C8.90941 26.6766 8.73232 26.6854 8.55576 26.7026C8.3792 26.7203 8.20368 26.7463 8.02972 26.7807C7.85576 26.8156 7.68337 26.8583 7.51357 26.9099C7.34378 26.9615 7.17712 27.0213 7.01305 27.0891C6.84899 27.1568 6.6891 27.2328 6.53232 27.3167C6.37607 27.4 6.22399 27.4911 6.07607 27.5896C5.92868 27.6885 5.78649 27.7937 5.64899 27.9068C5.51201 28.0193 5.38076 28.138 5.25524 28.2635C5.12972 28.3891 5.01045 28.5203 4.89795 28.6578C4.78545 28.7948 4.67972 28.937 4.58128 29.0849C4.48285 29.2323 4.3917 29.3844 4.30785 29.5406C4.22451 29.6974 4.14847 29.8578 4.08076 30.0213C4.01253 30.1854 3.95316 30.3526 3.9016 30.5224C3.85003 30.6922 3.8068 30.8641 3.77243 31.038C3.73753 31.212 3.71149 31.3875 3.6943 31.5641C3.6766 31.7406 3.66826 31.9177 3.66826 32.0953C3.66826 32.2724 3.6766 32.4495 3.6943 32.626C3.71149 32.8031 3.73753 32.9781 3.77243 33.1521C3.8068 33.3266 3.85003 33.4984 3.9016 33.6682C3.95316 33.838 4.01253 34.0047 4.08076 34.1687C4.14847 34.3328 4.22451 34.4927 4.30785 34.6495C4.3917 34.8057 4.48285 34.9578 4.58128 35.1057C4.67972 35.2531 4.78545 35.3953 4.89795 35.5328C5.01045 35.6698 5.12972 35.801 5.25524 35.9266C5.38076 36.0521 5.51201 36.1713 5.64899 36.2838C5.78649 36.3963 5.92868 36.5021 6.07607 36.6005C6.22399 36.699 6.37607 36.7901 6.53232 36.874C6.6891 36.9573 6.84899 37.0333 7.01305 37.101C7.17712 37.1693 7.34378 37.2286 7.51357 37.2802C7.68337 37.3318 7.85576 37.375 8.02972 37.4094C8.20368 37.4443 8.3792 37.4703 8.55576 37.4875C8.73232 37.5052 8.90941 37.5135 9.08649 37.5135C9.2641 37.5135 9.44118 37.5052 9.61774 37.4875C9.7943 37.4703 9.96982 37.4443 10.1438 37.4094C10.3177 37.375 10.4896 37.3318 10.6594 37.2802C10.8292 37.2286 10.9964 37.1693 11.1604 37.101C11.324 37.0333 11.4844 36.9573 11.6412 36.874C11.7974 36.7901 11.9495 36.699 12.0969 36.6005C12.2448 36.5021 12.387 36.3963 12.524 36.2838C12.6615 36.1713 12.7927 36.0521 12.9183 35.9266C13.0438 35.801 13.1625 35.6698 13.275 35.5328C13.3881 35.3953 13.4933 35.2531 13.5922 35.1057C13.6907 34.9578 13.7818 34.8057 13.8651 34.6495C13.949 34.4927 14.025 34.3328 14.0927 34.1687C14.1604 34.0047 14.2203 33.838 14.2719 33.6682C14.3235 33.4984 14.3667 33.3266 14.4011 33.1521C14.436 32.9781 14.4615 32.8031 14.4792 32.626C14.4964 32.4495 14.5052 32.2724 14.5052 32.0953C14.5052 31.9177 14.4964 31.7406 14.4787 31.5641C14.461 31.3875 14.4349 31.2125 14.4 31.0385C14.3657 30.8646 14.3224 30.6927 14.2709 30.5229C14.2188 30.3531 14.1594 30.1865 14.0912 30.0224C14.0235 29.8583 13.9474 29.6984 13.8636 29.5422C13.7802 29.3854 13.6891 29.2338 13.5901 29.0859C13.4917 28.9385 13.386 28.7963 13.2735 28.6594C13.161 28.5219 13.0417 28.3906 12.9167 28.2651C12.7912 28.1401 12.6599 28.0208 12.5224 27.9083C12.3854 27.7958 12.2433 27.6901 12.0959 27.5917C11.9485 27.4927 11.7964 27.4016 11.6396 27.3182C11.4834 27.2344 11.3235 27.1583 11.1594 27.0906C10.9953 27.0224 10.8287 26.963 10.6589 26.9115C10.4891 26.8594 10.3172 26.8167 10.1433 26.7818C9.9693 26.7469 9.7943 26.7208 9.61774 26.7031C9.44118 26.6859 9.2641 26.6766 9.08649 26.6766Z" fill="#666666"/>
</g>
<g filter="url(#filter1_d_94_54)">
<path d="M41.5407 40.2C41.2751 40.2005 41.01 40.1875 40.7454 40.1614C40.4813 40.1359 40.2188 40.0969 39.9579 40.0453C39.6975 39.9937 39.4397 39.9292 39.1855 39.8521C38.9313 39.7755 38.6813 39.6859 38.4355 39.5844C38.1902 39.4828 37.9501 39.3698 37.7157 39.2448C37.4813 39.1193 37.2537 38.9833 37.0329 38.8354C36.8115 38.688 36.5985 38.5302 36.3928 38.3614C36.1876 38.1932 35.9907 38.0151 35.8027 37.8271C35.6147 37.6396 35.4365 37.4427 35.2678 37.2375C35.099 37.0323 34.9407 36.8193 34.7933 36.5984C34.6454 36.3776 34.5089 36.15 34.3834 35.9156C34.2584 35.6812 34.1449 35.4411 34.0428 35.1958C33.9412 34.9505 33.8516 34.7005 33.7746 34.4463C33.6975 34.1922 33.6329 33.9349 33.5808 33.6739C33.5287 33.4135 33.4897 33.151 33.4636 32.8864C33.4376 32.6224 33.4246 32.3573 33.4246 32.0911C33.4246 31.8255 33.4376 31.5604 33.4631 31.2963C33.4891 31.0318 33.5282 30.7693 33.5803 30.5083C33.6319 30.2479 33.6964 29.9906 33.7735 29.7359C33.8506 29.4818 33.9397 29.2318 34.0417 28.9864C34.1433 28.7411 34.2569 28.501 34.3819 28.2667C34.5069 28.0323 34.6433 27.8047 34.7912 27.5838C34.9386 27.363 35.097 27.1495 35.2652 26.9443C35.4339 26.7391 35.6121 26.5422 35.8001 26.3542C35.9881 26.1667 36.1845 25.988 36.3902 25.8198C36.5954 25.651 36.8084 25.4932 37.0292 25.3453C37.2506 25.1979 37.4782 25.0615 37.7126 24.9359C37.947 24.8109 38.1865 24.6974 38.4324 24.5958C38.6777 24.4943 38.9277 24.4047 39.1819 24.3276C39.436 24.2505 39.6938 24.1859 39.9542 24.1344C40.2147 24.0828 40.4772 24.0437 40.7417 24.0177C41.0063 23.9917 41.2714 23.9786 41.5371 23.9786C41.8027 23.9786 42.0678 23.9922 42.3324 24.0182C42.5964 24.0443 42.8589 24.0833 43.1199 24.1349C43.3803 24.187 43.6376 24.2516 43.8923 24.3286C44.1464 24.4062 44.3959 24.4953 44.6417 24.5974C44.8871 24.699 45.1272 24.8125 45.361 24.938C45.5954 25.063 45.823 25.2 46.0438 25.3474C46.2647 25.4953 46.4777 25.6536 46.6834 25.8219C46.8886 25.9906 47.085 26.1693 47.273 26.3568C47.4605 26.5448 47.6386 26.7417 47.8074 26.9474C47.9756 27.1526 48.1339 27.3661 48.2813 27.587C48.4287 27.8078 48.5652 28.0359 48.6902 28.2703C48.8152 28.5047 48.9287 28.7443 49.0303 28.9901C49.1319 29.2354 49.2209 29.4854 49.298 29.7396C49.3751 29.9943 49.4391 30.2516 49.4912 30.5125C49.5428 30.7729 49.5813 31.0354 49.6074 31.3C49.6334 31.5646 49.6459 31.8297 49.6459 32.0953C49.6454 32.3604 49.6319 32.625 49.6053 32.8891C49.5787 33.1531 49.5397 33.4151 49.4871 33.675C49.435 33.9354 49.3704 34.1922 49.2928 34.4458C49.2157 34.7 49.1261 34.9489 49.0246 35.1943C48.9225 35.4391 48.8089 35.6786 48.6839 35.9125C48.5584 36.1463 48.422 36.3734 48.2746 36.5937C48.1272 36.8146 47.9694 37.0271 47.8006 37.2323C47.6324 37.4375 47.4548 37.6338 47.2667 37.8213C47.0792 38.0088 46.8829 38.187 46.6782 38.3552C46.473 38.5234 46.26 38.6812 46.0397 38.8292C45.8194 38.9766 45.5917 39.113 45.3579 39.238C45.124 39.3635 44.885 39.4771 44.6397 39.5786C44.3949 39.6802 44.1454 39.7698 43.8917 39.8474C43.6381 39.9245 43.3808 39.9896 43.1209 40.0417C42.8605 40.0937 42.5985 40.1333 42.335 40.1594C42.0709 40.1859 41.8063 40.1995 41.5407 40.2ZM41.5407 26.6766C41.3636 26.6766 41.1865 26.6854 41.01 26.7026C40.8329 26.7203 40.6579 26.7463 40.4839 26.7807C40.3095 26.8156 40.1376 26.8583 39.9678 26.9099C39.798 26.9615 39.6313 27.0213 39.4673 27.0891C39.3032 27.1568 39.1433 27.2328 38.9865 27.3167C38.8303 27.4 38.6782 27.4911 38.5303 27.5896C38.3829 27.6885 38.2407 27.7937 38.1032 27.9068C37.9662 28.0193 37.835 28.138 37.7095 28.2635C37.5839 28.3891 37.4647 28.5203 37.3522 28.6578C37.2397 28.7948 37.1339 28.937 37.0355 29.0849C36.9371 29.2323 36.8459 29.3844 36.7621 29.5406C36.6787 29.6974 36.6027 29.8578 36.535 30.0213C36.4667 30.1854 36.4074 30.3526 36.3558 30.5224C36.3042 30.6922 36.261 30.8641 36.2266 31.038C36.1917 31.212 36.1657 31.3875 36.1485 31.5641C36.1308 31.7406 36.1225 31.9177 36.1225 32.0953C36.1225 32.2724 36.1308 32.4495 36.1485 32.626C36.1657 32.8031 36.1917 32.9781 36.2266 33.1521C36.261 33.3266 36.3042 33.4984 36.3558 33.6682C36.4074 33.838 36.4667 34.0047 36.535 34.1687C36.6027 34.3328 36.6787 34.4927 36.7621 34.6495C36.8459 34.8057 36.9371 34.9578 37.0355 35.1057C37.1339 35.2531 37.2397 35.3953 37.3522 35.5328C37.4647 35.6698 37.5839 35.801 37.7095 35.9266C37.835 36.0521 37.9662 36.1713 38.1032 36.2838C38.2407 36.3963 38.3829 36.5021 38.5303 36.6005C38.6782 36.6989 38.8303 36.7901 38.9865 36.8739C39.1433 36.9573 39.3032 37.0333 39.4673 37.101C39.6313 37.1693 39.798 37.2286 39.9678 37.2802C40.1376 37.3318 40.3095 37.375 40.4839 37.4094C40.6579 37.4443 40.8329 37.4703 41.01 37.4875C41.1865 37.5052 41.3636 37.5135 41.5407 37.5135C41.7183 37.5135 41.8954 37.5052 42.072 37.4875C42.2485 37.4703 42.424 37.4443 42.598 37.4094C42.772 37.375 42.9438 37.3318 43.1136 37.2802C43.2834 37.2286 43.4506 37.1693 43.6147 37.101C43.7782 37.0333 43.9386 36.9573 44.0949 36.8739C44.2516 36.7901 44.4037 36.6989 44.5511 36.6005C44.6985 36.5021 44.8412 36.3963 44.9782 36.2838C45.1157 36.1713 45.247 36.0521 45.3725 35.9266C45.498 35.801 45.6167 35.6698 45.7292 35.5328C45.8417 35.3953 45.9475 35.2531 46.0459 35.1057C46.1449 34.9578 46.236 34.8057 46.3194 34.6495C46.4032 34.4927 46.4792 34.3328 46.547 34.1687C46.6147 34.0047 46.6746 33.838 46.7261 33.6682C46.7777 33.4984 46.8204 33.3266 46.8553 33.1521C46.8897 32.9781 46.9157 32.8031 46.9334 32.626C46.9506 32.4495 46.9595 32.2724 46.9595 32.0953C46.9589 31.9177 46.9501 31.7406 46.9329 31.5641C46.9152 31.3875 46.8891 31.2125 46.8542 31.0385C46.8194 30.8646 46.7761 30.6927 46.7246 30.5229C46.673 30.3531 46.6131 30.1865 46.5454 30.0224C46.4772 29.8583 46.4016 29.6984 46.3178 29.5422C46.2339 29.3854 46.1428 29.2338 46.0444 29.0859C45.9459 28.9385 45.8402 28.7963 45.7277 28.6594C45.6152 28.5219 45.4959 28.3906 45.3704 28.2651C45.2454 28.1401 45.1141 28.0208 44.9766 27.9083C44.8397 27.7958 44.6975 27.6901 44.5501 27.5917C44.4022 27.4927 44.2506 27.4016 44.0938 27.3182C43.9376 27.2344 43.7772 27.1583 43.6136 27.0906C43.4496 27.0224 43.2829 26.963 43.1131 26.9114C42.9433 26.8594 42.7714 26.8167 42.5975 26.7818C42.4235 26.7469 42.2485 26.7208 42.072 26.7031C41.8954 26.6859 41.7183 26.6766 41.5407 26.6766Z" fill="#666666"/>
</g>
<g filter="url(#filter2_d_94_54)">
<path d="M41.7235 33.4354C41.4396 33.437 41.1813 33.3573 40.9474 33.1958C38.3526 31.3708 37.6849 29.4599 36.7553 26.8193C36.3563 25.6786 35.9058 24.3896 35.2099 22.8266C35.1787 22.7464 35.1558 22.6641 35.1407 22.5797C35.1256 22.4953 35.1183 22.4099 35.1198 22.324C35.1209 22.238 35.1303 22.1531 35.1474 22.0693C35.1651 21.9849 35.1901 21.9036 35.2235 21.824C35.2563 21.7448 35.2964 21.6693 35.3443 21.5979C35.3917 21.5266 35.4454 21.4599 35.5058 21.399C35.5657 21.3375 35.6313 21.2828 35.7021 21.2339C35.773 21.1849 35.8474 21.1437 35.9261 21.1094C36.0047 21.0745 36.086 21.0479 36.1698 21.0292C36.2537 21.0104 36.3386 20.9995 36.424 20.9969C36.5099 20.9943 36.5954 21 36.6803 21.0135C36.7646 21.0271 36.8474 21.049 36.9282 21.0781C37.0089 21.1078 37.086 21.1448 37.1594 21.1891C37.2329 21.2333 37.3016 21.2839 37.3657 21.3417C37.4297 21.399 37.4875 21.462 37.5391 21.5302C37.5912 21.599 37.636 21.6714 37.6735 21.7484C38.4094 23.4198 38.9 24.8172 39.2938 25.9464C40.1662 28.4333 40.6053 29.6823 42.4933 31.0115C42.611 31.0932 42.7125 31.1906 42.7985 31.3052C42.8849 31.4193 42.9511 31.5437 42.9969 31.6792C43.0433 31.8146 43.0672 31.9536 43.0688 32.0964C43.0704 32.2396 43.05 32.3792 43.0068 32.5156C42.9641 32.6521 42.9006 32.7781 42.8172 32.8943C42.7339 33.0104 42.6344 33.1104 42.5188 33.1948C42.4037 33.2792 42.2776 33.3432 42.1417 33.3875C42.0058 33.4312 41.8662 33.4531 41.7235 33.4526V33.4354Z" fill="#666666"/>
</g>
<g filter="url(#filter3_d_94_54)">
<path d="M26.4887 33.4354H8.31105C8.21938 33.4417 8.12772 33.438 8.03657 33.4255C7.94543 33.4125 7.85636 33.3906 7.76991 33.3594C7.68293 33.3286 7.60011 33.2891 7.52199 33.2411C7.44334 33.1932 7.37043 33.1375 7.30324 33.0745C7.23605 33.0115 7.17563 32.9427 7.12303 32.8672C7.06991 32.7922 7.02511 32.712 6.98866 32.6276C6.95168 32.5432 6.92407 32.4557 6.90532 32.3656C6.88657 32.2755 6.8772 32.1844 6.8772 32.0922C6.8772 32 6.88657 31.9094 6.90532 31.8188C6.92407 31.7286 6.95168 31.6417 6.98866 31.5568C7.02511 31.4724 7.06991 31.3927 7.12303 31.3172C7.17563 31.2422 7.23605 31.1729 7.30324 31.1099C7.37043 31.0469 7.44334 30.9917 7.52199 30.9438C7.60011 30.8958 7.68293 30.8563 7.76991 30.825C7.85636 30.7938 7.94543 30.7719 8.03657 30.7594C8.12772 30.7464 8.21938 30.7432 8.31105 30.749H26.4887C26.5808 30.7432 26.672 30.7464 26.7631 30.7594C26.8548 30.7719 26.9433 30.7938 27.0303 30.825C27.1168 30.8563 27.1996 30.8958 27.2782 30.9438C27.3569 30.9917 27.4293 31.0469 27.4965 31.1099C27.5637 31.1729 27.6241 31.2422 27.6772 31.3172C27.7298 31.3927 27.7746 31.4724 27.8116 31.5568C27.848 31.6417 27.8756 31.7286 27.8944 31.8188C27.9131 31.9089 27.9225 32 27.9225 32.0922C27.9225 32.1844 27.9131 32.2755 27.8944 32.3656C27.8756 32.4557 27.848 32.5432 27.8116 32.6276C27.7746 32.712 27.7298 32.7922 27.6772 32.8672C27.6241 32.9427 27.5637 33.0115 27.4965 33.0745C27.4293 33.1375 27.3569 33.1932 27.2782 33.2411C27.1996 33.2891 27.1168 33.3286 27.0303 33.3594C26.9433 33.3906 26.8548 33.4125 26.7631 33.4255C26.672 33.438 26.5808 33.4417 26.4887 33.4354Z" fill="#666666"/>
</g>
<g filter="url(#filter4_d_94_54)">
<path d="M3.90784 21.6229H11.9844C12.1584 21.6213 12.3271 21.65 12.4912 21.7088C12.6552 21.7677 12.8037 21.8531 12.9365 21.9656L18.9141 27.099C19.0464 27.2099 19.1495 27.3437 19.2229 27.5005C19.2969 27.6568 19.3344 27.8213 19.3365 27.9943V33.1276C19.3412 33.213 19.3542 33.2974 19.3755 33.3807C19.3964 33.4641 19.4261 33.5443 19.463 33.6213C19.5 33.699 19.5443 33.7719 19.5953 33.8406C19.6469 33.9094 19.7047 33.9724 19.7683 34.0297C19.8318 34.0875 19.9005 34.138 19.9745 34.1818C20.0485 34.226 20.1255 34.262 20.2063 34.2911C20.287 34.3198 20.3698 34.3401 20.4547 34.3526C20.5396 34.3651 20.625 34.3693 20.711 34.3651H29.7058C29.7912 34.3693 29.8766 34.3651 29.9615 34.3526C30.0464 34.3401 30.1292 34.3198 30.2099 34.2911C30.2912 34.262 30.3683 34.226 30.4417 34.1818C30.5157 34.138 30.5844 34.0875 30.6479 34.0297C30.712 33.9724 30.7693 33.9094 30.8209 33.8406C30.8724 33.7719 30.9167 33.699 30.9537 33.6213C30.9907 33.5443 31.0198 33.4641 31.0412 33.3807C31.0625 33.2974 31.0755 33.213 31.0802 33.1276V28.8953C31.0808 28.751 31.1073 28.6125 31.1604 28.4781C31.2141 28.3443 31.2896 28.225 31.388 28.1198L36.8412 22.0797C36.9782 21.9307 37.1396 21.8172 37.3256 21.7375C37.5115 21.6578 37.7052 21.6198 37.9073 21.6229H40.5995C40.7104 21.6349 40.8214 21.6323 40.9313 21.6141C41.0417 21.5963 41.1474 21.5646 41.2495 21.5182C41.3511 21.4719 41.4448 21.4135 41.5308 21.3422C41.6167 21.2708 41.6912 21.1891 41.7552 21.0979C41.8193 21.0062 41.8703 20.9083 41.9084 20.8031C41.9459 20.6979 41.9693 20.5896 41.9776 20.4786C41.9865 20.3672 41.9802 20.2568 41.9594 20.1469C41.9386 20.0375 41.9037 19.9323 41.8547 19.8323L39.8584 16.2391C39.7948 16.1328 39.7183 16.0365 39.6297 15.9505C39.5407 15.8646 39.4422 15.7917 39.3339 15.7312C39.2256 15.6713 39.1115 15.6266 38.9917 15.5963C38.8719 15.5661 38.75 15.5521 38.6261 15.5542H32.1584C31.9802 15.5552 31.8068 15.5859 31.6391 15.6458L21.8287 19.2505C21.6318 19.3229 21.4287 19.3526 21.2193 19.3396C21.0099 19.3266 20.812 19.2724 20.625 19.176L13.9349 15.7198C13.7198 15.6094 13.4917 15.5542 13.2505 15.5542H6.69117C6.58232 15.5521 6.47399 15.5615 6.36721 15.5838C6.26044 15.6062 6.15784 15.6406 6.05888 15.6865C5.95992 15.7323 5.86774 15.7891 5.7818 15.8562C5.69586 15.9234 5.61878 16 5.55055 16.0849L2.76149 19.6781C2.69221 19.7755 2.63857 19.8807 2.60003 19.9937C2.56201 20.1062 2.54013 20.2224 2.53492 20.3417C2.53024 20.4609 2.54221 20.5781 2.57138 20.6937C2.60003 20.8094 2.64482 20.9187 2.70524 21.0213C2.76617 21.124 2.84013 21.2161 2.92711 21.2974C3.01409 21.3792 3.11096 21.4463 3.21774 21.5C3.32451 21.5531 3.43649 21.5901 3.55367 21.6115C3.67138 21.6323 3.78909 21.6365 3.90784 21.6229Z" fill="#666666"/>
</g>
<g filter="url(#filter5_d_94_54)">
<mask id="mask0_94_54" style="mask-type:luminance" maskUnits="userSpaceOnUse" x="27" y="9" width="15" height="13">
<path d="M27.7334 9.77083H42.0001V21.2H27.7334V9.77083Z" fill="white"/>
</mask>
<g mask="url(#mask0_94_54)">
<path d="M40.5543 21.087C40.4272 21.0865 40.3028 21.0682 40.1814 21.0328C40.0595 20.9974 39.9449 20.9458 39.8376 20.8786C39.7298 20.8109 39.634 20.7302 39.5496 20.6354C39.4647 20.5411 39.3949 20.437 39.3392 20.3229L35.5804 12.4859H29.1694C29.0778 12.4917 28.9861 12.4885 28.8949 12.4755C28.8038 12.463 28.7147 12.4411 28.6283 12.4099C28.5413 12.3786 28.459 12.3391 28.3804 12.2911C28.3017 12.2432 28.2288 12.188 28.1616 12.125C28.0944 12.062 28.0345 11.9927 27.9814 11.9177C27.9283 11.8422 27.8835 11.7625 27.847 11.6781C27.8106 11.5932 27.7824 11.5062 27.7642 11.4161C27.7455 11.3255 27.7361 11.2349 27.7361 11.1427C27.7361 11.0505 27.7455 10.9594 27.7642 10.8693C27.7824 10.7792 27.8106 10.6917 27.847 10.6073C27.8835 10.5229 27.9283 10.4427 27.9814 10.3677C28.0345 10.2922 28.0944 10.2234 28.1616 10.1604C28.2288 10.0974 28.3017 10.0417 28.3804 9.99374C28.459 9.94583 28.5413 9.90624 28.6283 9.87551C28.7147 9.84426 28.8038 9.82239 28.8949 9.80937C28.9861 9.79687 29.0778 9.79322 29.1694 9.79947H37.2918L41.7689 19.1594C41.8069 19.2391 41.8366 19.3219 41.8585 19.4073C41.8798 19.4932 41.8934 19.5802 41.8975 19.6682C41.9022 19.7562 41.8986 19.8443 41.8856 19.9318C41.8731 20.0193 41.8522 20.1047 41.8225 20.188C41.7934 20.2713 41.7564 20.351 41.7111 20.4271C41.6663 20.5031 41.6142 20.574 41.5554 20.6401C41.4965 20.7057 41.4319 20.7651 41.3611 20.8182C41.2908 20.8713 41.2153 20.9172 41.1361 20.9557C40.9522 21.0443 40.758 21.088 40.5543 21.087Z" fill="#666666"/>
</g>
</g>
</g>
<defs>
<filter id="filter0_d_94_54" x="-5.02393" y="21.9786" width="28.2214" height="28.2214" filterUnits="userSpaceOnUse" color-interpolation-filters="sRGB">
<feFlood flood-opacity="0" result="BackgroundImageFix"/>
<feColorMatrix in="SourceAlpha" type="matrix" values="0 0 0 0 0 0 0 0 0 0 0 0 0 0 0 0 0 0 127 0" result="hardAlpha"/>
<feOffset dy="4"/>
<feGaussianBlur stdDeviation="3"/>
<feComposite in2="hardAlpha" operator="out"/>
<feColorMatrix type="matrix" values="0 0 0 0 0 0 0 0 0 0 0 0 0 0 0 0 0 0 0.2 0"/>
<feBlend mode="normal" in2="BackgroundImageFix" result="effect1_dropShadow_94_54"/>
<feBlend mode="normal" in="SourceGraphic" in2="effect1_dropShadow_94_54" result="shape"/>
</filter>
<filter id="filter1_d_94_54" x="27.4246" y="21.9786" width="28.2214" height="28.2214" filterUnits="userSpaceOnUse" color-interpolation-filters="sRGB">
<feFlood flood-opacity="0" result="BackgroundImageFix"/>
<feColorMatrix in="SourceAlpha" type="matrix" values="0 0 0 0 0 0 0 0 0 0 0 0 0 0 0 0 0 0 127 0" result="hardAlpha"/>
<feOffset dy="4"/>
<feGaussianBlur stdDeviation="3"/>
<feComposite in2="hardAlpha" operator="out"/>
<feColorMatrix type="matrix" values="0 0 0 0 0 0 0 0 0 0 0 0 0 0 0 0 0 0 0.2 0"/>
<feBlend mode="normal" in2="BackgroundImageFix" result="effect1_dropShadow_94_54"/>
<feBlend mode="normal" in="SourceGraphic" in2="effect1_dropShadow_94_54" result="shape"/>
</filter>
<filter id="filter2_d_94_54" x="29.1196" y="18.9963" width="19.9492" height="24.4563" filterUnits="userSpaceOnUse" color-interpolation-filters="sRGB">
<feFlood flood-opacity="0" result="BackgroundImageFix"/>
<feColorMatrix in="SourceAlpha" type="matrix" values="0 0 0 0 0 0 0 0 0 0 0 0 0 0 0 0 0 0 127 0" result="hardAlpha"/>
<feOffset dy="4"/>
<feGaussianBlur stdDeviation="3"/>
<feComposite in2="hardAlpha" operator="out"/>
<feColorMatrix type="matrix" values="0 0 0 0 0 0 0 0 0 0 0 0 0 0 0 0 0 0 0.2 0"/>
<feBlend mode="normal" in2="BackgroundImageFix" result="effect1_dropShadow_94_54"/>
<feBlend mode="normal" in="SourceGraphic" in2="effect1_dropShadow_94_54" result="shape"/>
</filter>
<filter id="filter3_d_94_54" x="0.877197" y="28.7462" width="33.0454" height="14.6922" filterUnits="userSpaceOnUse" color-interpolation-filters="sRGB">
<feFlood flood-opacity="0" result="BackgroundImageFix"/>
<feColorMatrix in="SourceAlpha" type="matrix" values="0 0 0 0 0 0 0 0 0 0 0 0 0 0 0 0 0 0 127 0" result="hardAlpha"/>
<feOffset dy="4"/>
<feGaussianBlur stdDeviation="3"/>
<feComposite in2="hardAlpha" operator="out"/>
<feColorMatrix type="matrix" values="0 0 0 0 0 0 0 0 0 0 0 0 0 0 0 0 0 0 0.2 0"/>
<feBlend mode="normal" in2="BackgroundImageFix" result="effect1_dropShadow_94_54"/>
<feBlend mode="normal" in="SourceGraphic" in2="effect1_dropShadow_94_54" result="shape"/>
</filter>
<filter id="filter4_d_94_54" x="-3.46606" y="13.5539" width="51.4475" height="30.8128" filterUnits="userSpaceOnUse" color-interpolation-filters="sRGB">
<feFlood flood-opacity="0" result="BackgroundImageFix"/>
<feColorMatrix in="SourceAlpha" type="matrix" values="0 0 0 0 0 0 0 0 0 0 0 0 0 0 0 0 0 0 127 0" result="hardAlpha"/>
<feOffset dy="4"/>
<feGaussianBlur stdDeviation="3"/>
<feComposite in2="hardAlpha" operator="out"/>
<feColorMatrix type="matrix" values="0 0 0 0 0 0 0 0 0 0 0 0 0 0 0 0 0 0 0.2 0"/>
<feBlend mode="normal" in2="BackgroundImageFix" result="effect1_dropShadow_94_54"/>
<feBlend mode="normal" in="SourceGraphic" in2="effect1_dropShadow_94_54" result="shape"/>
</filter>
<filter id="filter5_d_94_54" x="21.7361" y="7.79648" width="26.1633" height="23.2905" filterUnits="userSpaceOnUse" color-interpolation-filters="sRGB">
<feFlood flood-opacity="0" result="BackgroundImageFix"/>
<feColorMatrix in="SourceAlpha" type="matrix" values="0 0 0 0 0 0 0 0 0 0 0 0 0 0 0 0 0 0 127 0" result="hardAlpha"/>
<feOffset dy="4"/>
<feGaussianBlur stdDeviation="3"/>
<feComposite in2="hardAlpha" operator="out"/>
<feColorMatrix type="matrix" values="0 0 0 0 0 0 0 0 0 0 0 0 0 0 0 0 0 0 0.2 0"/>
<feBlend mode="normal" in2="BackgroundImageFix" result="effect1_dropShadow_94_54"/>
<feBlend mode="normal" in="SourceGraphic" in2="effect1_dropShadow_94_54" result="shape"/>
</filter>
<clipPath id="clip0_94_54">
<rect width="50" height="50" fill="white"/>
</clipPath>
</defs>
</svg>
