<svg width="25" height="25" viewBox="0 0 25 25" fill="none" xmlns="http://www.w3.org/2000/svg">
<g clip-path="url(#clip0_229_289)">
<path d="M14.5833 3.125V7.29167C14.5833 7.56793 14.693 7.83289 14.8883 8.02824C15.0837 8.22359 15.3487 8.33333 15.6249 8.33333H19.7916" stroke="black" stroke-width="2" stroke-linecap="round" stroke-linejoin="round"/>
<path d="M19.7916 12.5V19.7917C19.8408 20.1848 19.7629 20.5833 19.5691 20.9289C19.3754 21.2745 19.076 21.5489 18.7149 21.712C18.3539 21.8751 17.95 21.9182 17.5627 21.8351C17.1753 21.7519 16.8248 21.5469 16.5624 21.25C16.4016 21.0443 16.1962 20.878 15.9615 20.7636C15.7269 20.6492 15.4693 20.5897 15.2082 20.5897C14.9472 20.5897 14.6896 20.6492 14.4549 20.7636C14.2203 20.878 14.0148 21.0443 13.8541 21.25C13.6933 21.4557 13.4878 21.622 13.2532 21.7364C13.0186 21.8508 12.7609 21.9103 12.4999 21.9103C12.2389 21.9103 11.9812 21.8508 11.7466 21.7364C11.512 21.622 11.3065 21.4557 11.1457 21.25C10.985 21.0443 10.7795 20.878 10.5449 20.7636C10.3102 20.6492 10.0526 20.5897 9.79157 20.5897C9.53053 20.5897 9.27292 20.6492 9.03828 20.7636C8.80365 20.878 8.59816 21.0443 8.4374 21.25C8.17505 21.5469 7.82449 21.7519 7.43713 21.8351C7.04976 21.9182 6.64594 21.8751 6.28487 21.712C5.92379 21.5489 5.62444 21.2745 5.43069 20.9289C5.23694 20.5833 5.15898 20.1848 5.20823 19.7917V5.20833C5.20823 4.6558 5.42773 4.12589 5.81843 3.73519C6.20913 3.34449 6.73903 3.125 7.29157 3.125H14.5832L19.7916 8.33333V12.7604" stroke="black" stroke-width="2" stroke-linecap="round" stroke-linejoin="round"/>
</g>
<defs>
<clipPath id="clip0_229_289">
<rect width="25" height="25" fill="white"/>
</clipPath>
</defs>
</svg>
